<svg width="32" height="32" viewBox="0 0 32 32" fill="none" xmlns="http://www.w3.org/2000/svg">
<circle cx="16" cy="16.0001" r="16" fill="#D9F5EE"/>
<g clip-path="url(#clip0_106_1068)">
<path d="M17.7301 16.0002C17.7301 16.956 16.9552 17.7309 15.9993 17.7309C15.0435 17.7309 14.2686 16.956 14.2686 16.0002C14.2686 15.0443 15.0435 14.2694 15.9993 14.2694C16.9552 14.2694 17.7301 15.0443 17.7301 16.0002Z" fill="#252A34"/>
<path d="M18.9224 10.7694H13.0762C11.8037 10.7694 10.7686 11.8046 10.7686 13.0771V18.9233C10.7686 20.1958 11.8037 21.2309 13.0762 21.2309H18.9224C20.1949 21.2309 21.2301 20.1958 21.2301 18.9233V13.0771C21.2301 11.8046 20.1949 10.7694 18.9224 10.7694ZM15.9993 18.8848C14.4087 18.8848 13.1147 17.5908 13.1147 16.0002C13.1147 14.4096 14.4087 13.1156 15.9993 13.1156C17.5899 13.1156 18.8839 14.4096 18.8839 16.0002C18.8839 17.5908 17.5899 18.8848 15.9993 18.8848ZM19.307 13.2694C18.9884 13.2694 18.7301 13.0111 18.7301 12.6925C18.7301 12.3738 18.9884 12.1156 19.307 12.1156C19.6257 12.1156 19.8839 12.3738 19.8839 12.6925C19.8839 13.0111 19.6257 13.2694 19.307 13.2694Z" fill="#252A34"/>
<path d="M20.6533 6.15393H11.3456C8.48265 6.15393 6.15332 8.48326 6.15332 11.3462V20.6539C6.15332 23.5169 8.48265 25.8462 11.3456 25.8462H20.6533C23.5163 25.8462 25.8456 23.5169 25.8456 20.6539V11.3462C25.8456 8.48326 23.5163 6.15393 20.6533 6.15393ZM22.3841 18.9232C22.3841 20.8318 20.8312 22.3847 18.9226 22.3847H13.0764C11.1677 22.3847 9.61486 20.8318 9.61486 18.9232V13.077C9.61486 11.1684 11.1677 9.61547 13.0764 9.61547H18.9226C20.8312 9.61547 22.3841 11.1684 22.3841 13.077V18.9232Z" fill="#252A34"/>
</g>
<defs>
<clipPath id="clip0_106_1068">
<rect width="19.6923" height="19.6923" fill="white" transform="translate(6.15332 6.15393)"/>
</clipPath>
</defs>
</svg>
