<svg width="688" height="459" viewBox="0 0 688 459" fill="none" xmlns="http://www.w3.org/2000/svg">
<path d="M641.767 351.319C577.187 403.553 467.84 411.126 406.746 393.455C345.652 375.737 269.1 456.659 131.592 423.795C-5.91639 390.93 -21.8321 223.257 46.9679 150.781C115.722 78.3053 176.358 125.49 228.095 113.694C279.833 101.898 379.501 45.6245 463.07 37.0412C483.481 34.9298 504.029 37.4084 523.385 42.2738C596.863 60.9092 650.803 116.54 666.305 187.042C679.744 248.181 680.065 320.336 641.767 351.319Z" fill="#6FCF97"/>
<path opacity="0.8" d="M641.767 351.319C577.187 403.553 467.84 411.126 406.746 393.455C345.652 375.737 269.1 456.659 131.592 423.795C-5.91639 390.93 -21.8321 223.257 46.9679 150.781C115.722 78.3053 176.358 125.49 228.095 113.694C279.833 101.898 379.501 45.6245 463.07 37.0412C483.481 34.9298 504.029 37.4084 523.385 42.2738C596.863 60.9092 650.803 116.54 666.305 187.042C679.744 248.181 680.065 320.336 641.767 351.319Z" fill="white"/>
<path opacity="0.2" d="M343.771 203.337H372.117V214.812H343.771V203.337Z" fill="black"/>
<path opacity="0.2" d="M332.992 162.532H361.292V174.007H332.992V162.532Z" fill="black"/>
<path opacity="0.2" d="M230.48 203.016H258.826V214.491H230.48V203.016Z" fill="black"/>
<path opacity="0.2" d="M271.623 123.196H299.969V134.671H271.623V123.196Z" fill="black"/>
<path opacity="0.2" d="M302.629 123.196H330.974V134.671H302.629V123.196Z" fill="black"/>
<path opacity="0.2" d="M181.953 287.839H210.253V299.314H181.953V287.839Z" fill="black"/>
<path opacity="0.2" d="M167.092 302.022H195.437V313.497H167.092V302.022Z" fill="black"/>
<path opacity="0.1" d="M317.49 178.367H345.79V189.842H317.49V178.367Z" fill="black"/>
<path opacity="0.1" d="M359.963 242.811H388.309V254.286H359.963V242.811Z" fill="black"/>
<path opacity="0.1" d="M194.062 260.391H222.408V271.866H194.062V260.391Z" fill="black"/>
<path opacity="0.1" d="M226.443 260.391H254.743V271.866H226.443V260.391Z" fill="black"/>
<path opacity="0.1" d="M229.15 244.188H257.45V255.663H229.15V244.188Z" fill="black"/>
<path opacity="0.1" d="M349.826 178.367H378.172V189.842H349.826V178.367Z" fill="black"/>
<path opacity="0.2" d="M335.607 87.0264H363.953V98.5014H335.607V87.0264Z" fill="black"/>
<path opacity="0.2" d="M324.828 46.1753H353.128V57.6503H324.828V46.1753Z" fill="black"/>
<path opacity="0.1" d="M309.326 62.0566H337.626V73.5316H309.326V62.0566Z" fill="black"/>
<path opacity="0.1" d="M341.662 62.0566H370.008V73.5316H341.662V62.0566Z" fill="black"/>
<path opacity="0.2" d="M265.568 300.875H293.868V312.349H265.568V300.875Z" fill="black"/>
<path opacity="0.1" d="M250.066 316.71H278.366V328.185H250.066V316.71Z" fill="black"/>
<path opacity="0.1" d="M282.402 316.71H310.748V328.185H282.402V316.71Z" fill="black"/>
<path opacity="0.2" d="M128.244 158.08H156.59V169.555H128.244V158.08Z" fill="black"/>
<path opacity="0.1" d="M112.74 173.915H141.04V185.39H112.74V173.915Z" fill="black"/>
<path opacity="0.1" d="M145.123 173.915H173.423V185.39H145.123V173.915Z" fill="black"/>
<path opacity="0.2" d="M117.189 243.5H145.535V254.975H117.189V243.5Z" fill="black"/>
<path opacity="0.1" d="M242.635 188.649H270.935V200.124H242.635V188.649Z" fill="black"/>
<path opacity="0.1" d="M200.162 301.333H228.462V312.809H200.162V301.333Z" fill="black"/>
<path opacity="0.1" d="M287.814 109.012H316.114V120.487H287.814V109.012Z" fill="black"/>
<path opacity="0.2" d="M100.998 205.54H129.344V217.015H100.998V205.54Z" fill="black"/>
<path opacity="0.1" d="M117.189 191.357H145.535V202.832H117.189V191.357Z" fill="black"/>
<path opacity="0.1" d="M189.338 122.369H217.684V133.844H189.338V122.369Z" fill="black"/>
<path opacity="0.2" d="M287.814 203.337H316.114V214.812H287.814V203.337Z" fill="black"/>
<path opacity="0.2" d="M468.757 214.812H440.457V203.337H468.757V214.812Z" fill="black"/>
<path opacity="0.2" d="M479.582 174.007H451.236V162.532H479.582V174.007Z" fill="black"/>
<path opacity="0.2" d="M582.048 214.491H553.748V203.016H582.048V214.491Z" fill="black"/>
<path opacity="0.2" d="M540.951 134.671H512.605V123.196H540.951V134.671Z" fill="black"/>
<path opacity="0.2" d="M509.899 134.671H481.6V123.196H509.899V134.671Z" fill="black"/>
<path opacity="0.1" d="M495.086 189.842H466.74V178.367H495.086V189.842Z" fill="black"/>
<path opacity="0.1" d="M452.613 254.286H424.268V242.811H452.613V254.286Z" fill="black"/>
<path opacity="0.1" d="M618.466 271.866H590.166V260.391H618.466V271.866Z" fill="black"/>
<path opacity="0.1" d="M586.131 271.866H557.785V260.391H586.131V271.866Z" fill="black"/>
<path opacity="0.1" d="M583.424 255.663H555.078V244.188H583.424V255.663Z" fill="black"/>
<path opacity="0.1" d="M462.704 189.842H434.404V178.367H462.704V189.842Z" fill="black"/>
<path opacity="0.2" d="M241.81 357.974H213.51V346.499H241.81V357.974Z" fill="black"/>
<path opacity="0.1" d="M257.359 373.855H229.014V362.38H257.359V373.855Z" fill="black"/>
<path opacity="0.1" d="M224.976 373.855H196.631V362.38H224.976V373.855Z" fill="black"/>
<path opacity="0.2" d="M104.714 357.974H76.4141V346.499H104.714V357.974Z" fill="black"/>
<path opacity="0.1" d="M120.218 373.855H91.918V362.38H120.218V373.855Z" fill="black"/>
<path opacity="0.1" d="M87.8808 373.855H59.5352V362.38H87.8808V373.855Z" fill="black"/>
<path opacity="0.2" d="M547.006 312.349H518.66V300.875H547.006V312.349Z" fill="black"/>
<path opacity="0.1" d="M562.509 328.185H534.209V316.71H562.509V328.185Z" fill="black"/>
<path opacity="0.1" d="M530.128 328.185H501.828V316.71H530.128V328.185Z" fill="black"/>
<path opacity="0.1" d="M569.939 200.124H541.594V188.649H569.939V200.124Z" fill="black"/>
<path opacity="0.1" d="M612.413 312.809H584.113V301.333H612.413V312.809Z" fill="black"/>
<path opacity="0.1" d="M474.262 328.965H445.916V317.49H474.262V328.965Z" fill="black"/>
<path opacity="0.1" d="M441.88 328.965H413.58V317.49H441.88V328.965Z" fill="black"/>
<path opacity="0.2" d="M402.755 369.449H374.455V357.974H402.755V369.449Z" fill="black"/>
<path opacity="0.1" d="M644.748 385.285H616.402V373.81H644.748V385.285Z" fill="black"/>
<path opacity="0.1" d="M644.748 355.954H616.402V344.479H644.748V355.954Z" fill="black"/>
<path opacity="0.1" d="M659.241 370.229H630.941V358.754H659.241V370.229Z" fill="black"/>
<path opacity="0.1" d="M626.768 370.229H598.422V358.754H626.768V370.229Z" fill="black"/>
<path opacity="0.1" d="M468.207 369.908H439.861V358.433H468.207V369.908Z" fill="black"/>
<path opacity="0.2" d="M476.969 396.484H505.314V407.959H476.969V396.484Z" fill="black"/>
<path opacity="0.1" d="M461.465 412.365H489.765V423.841H461.465V412.365Z" fill="black"/>
<path opacity="0.1" d="M493.848 412.365H522.147V423.841H493.848V412.365Z" fill="black"/>
<path opacity="0.2" d="M571.27 386.386H599.615V397.861H571.27V386.386Z" fill="black"/>
<path opacity="0.1" d="M555.768 412.365H584.113V423.841H555.768V412.365Z" fill="black"/>
<path opacity="0.1" d="M588.148 412.365H616.448V423.841H588.148V412.365Z" fill="black"/>
<path opacity="0.1" d="M63.5723 423.795H91.872V435.27H63.5723V423.795Z" fill="black"/>
<path opacity="0.1" d="M156.498 408.74H184.798V420.214H156.498V408.74Z" fill="black"/>
<path opacity="0.1" d="M104.164 394.465H132.51V405.94H104.164V394.465Z" fill="black"/>
<path opacity="0.1" d="M89.6699 408.74H117.97V420.214H89.6699V408.74Z" fill="black"/>
<path opacity="0.1" d="M122.143 408.74H150.488V420.214H122.143V408.74Z" fill="black"/>
<path opacity="0.1" d="M524.762 120.487H496.416V109.012H524.762V120.487Z" fill="black"/>
<path opacity="0.1" d="M509.671 72.1088H481.371V60.6338H509.671V72.1088Z" fill="black"/>
<path opacity="0.1" d="M623.19 133.844H594.891V122.369H623.19V133.844Z" fill="black"/>
<path opacity="0.2" d="M524.762 214.812H496.416V203.337H524.762V214.812Z" fill="black"/>
<path opacity="0.2" d="M179.98 44.4771H208.28V55.952H179.98V44.4771Z" fill="black"/>
<path opacity="0.1" d="M65.543 125.766H93.8427V137.241H65.543V125.766Z" fill="black"/>
<path opacity="0.1" d="M100.861 135.68H129.161V147.155H100.861V135.68Z" fill="black"/>
<path opacity="0.1" d="M31.6484 146.972H59.9482V158.447H31.6484V146.972Z" fill="black"/>
<path opacity="0.1" d="M82.7891 147.477H111.135V158.952H82.7891V147.477Z" fill="black"/>
<path opacity="0.2" d="M162.645 60.542H190.944V72.017H162.645V60.542Z" fill="black"/>
<path opacity="0.2" d="M466.051 44.4771H494.396V55.952H466.051V44.4771Z" fill="black"/>
<path opacity="0.2" d="M448.715 60.542H477.06V72.017H448.715V60.542Z" fill="black"/>
<path fill-rule="evenodd" clip-rule="evenodd" d="M236.35 158.355C235.892 160.986 235.219 163.542 234.332 166.02L242.588 170.794L234.745 184.426L226.443 179.607C224.746 181.626 222.866 183.508 220.848 185.206L225.618 193.514L211.995 201.409L207.225 193.101C204.794 194.019 202.226 194.662 199.565 195.167V204.714H183.879V195.167C181.219 194.708 178.666 194.019 176.219 193.101L171.403 201.409L157.827 193.514L162.597 185.252C160.579 183.554 158.698 181.672 157.001 179.652L148.699 184.426L140.856 170.794L149.112 166.02C148.241 163.542 147.553 161.017 147.094 158.355H137.508V142.611H147.094C147.553 139.98 148.225 137.44 149.112 134.992L140.81 130.172L148.699 116.54L157.001 121.359C158.698 119.34 160.533 117.458 162.597 115.76L157.781 107.452L171.403 99.557L176.173 107.865C178.65 106.947 181.219 106.304 183.833 105.845V96.2522H199.565V105.799C202.195 106.258 204.748 106.947 207.225 107.865L211.995 99.557L225.618 107.452L220.848 115.714C222.866 117.412 224.7 119.294 226.443 121.314L234.699 116.54L242.588 130.172L234.286 134.946C235.204 137.424 235.892 139.98 236.35 142.611H245.937V158.355H236.35ZM220.985 150.506C220.985 134.303 207.867 121.176 191.676 121.176C175.531 121.176 162.413 134.303 162.413 150.506C162.413 166.663 175.531 179.79 191.676 179.79C207.867 179.79 220.985 166.663 220.985 150.506Z" fill="white" stroke="#263238" stroke-width="2" stroke-linecap="round" stroke-linejoin="round"/>
<path fill-rule="evenodd" clip-rule="evenodd" d="M164.845 302.848C164.386 305.51 163.713 308.065 162.826 310.513L171.082 315.287L163.239 328.919L154.937 324.146C153.24 326.165 151.36 328.047 149.342 329.745L154.112 338.053L140.489 345.902L135.719 337.64C133.288 338.512 130.72 339.201 128.06 339.66V349.253H112.373V339.66C109.713 339.201 107.16 338.528 104.713 337.64L99.8974 345.902L86.3209 338.053L91.091 329.745C89.0729 328.047 87.1924 326.165 85.4953 324.146L77.1934 328.965L69.3502 315.333L77.6062 310.559C76.7348 308.081 76.0468 305.51 75.5881 302.894H66.002V287.15H75.5881C76.0468 284.519 76.7195 281.964 77.6062 279.485L69.3044 274.711L77.1934 261.079L85.4953 265.853C87.1924 263.833 89.027 261.951 91.091 260.253L86.275 251.945L99.8974 244.096L104.668 252.358C107.144 251.486 109.713 250.797 112.327 250.338V240.745H128.06V250.338C130.689 250.797 133.242 251.471 135.719 252.358L140.489 244.096L154.112 251.945L149.342 260.253C151.36 261.951 153.194 263.833 154.937 265.853L163.193 261.033L171.082 274.665L162.781 279.485C163.698 281.918 164.386 284.488 164.845 287.104H174.431V302.848H164.845ZM149.479 294.999C149.479 278.796 136.361 265.669 120.17 265.669C104.025 265.669 90.9076 278.796 90.9076 294.999C90.9076 311.202 104.025 324.329 120.17 324.329C136.361 324.329 149.479 311.202 149.479 294.999Z" fill="white" stroke="#263238" stroke-width="2" stroke-linecap="round" stroke-linejoin="round"/>
<path fill-rule="evenodd" clip-rule="evenodd" d="M567.095 300.599C566.79 302.374 566.331 304.103 565.719 305.786L571.315 308.999L565.995 318.225L560.399 314.966C559.268 316.343 558.014 317.613 556.638 318.775L559.849 324.375L550.675 329.654L547.464 324.1C545.783 324.681 544.055 325.14 542.282 325.477V331.903H531.64V325.477C529.867 325.14 528.155 324.681 526.503 324.1L523.247 329.7L514.074 324.375L517.284 318.775C515.939 317.613 514.685 316.343 513.523 314.966L507.927 318.225L502.607 308.999L508.203 305.786C507.591 304.133 507.132 302.42 506.827 300.645H500.359V289.996H506.827C507.132 288.221 507.591 286.492 508.203 284.809L502.607 281.596L507.927 272.416L513.523 275.629C514.654 274.252 515.908 272.998 517.284 271.866L514.074 266.266L523.247 260.941L526.503 266.541C528.155 265.929 529.867 265.47 531.64 265.164V258.692H542.282V265.164C544.055 265.47 545.767 265.929 547.419 266.541L550.675 260.941L559.849 266.22L556.638 271.866C557.983 272.998 559.237 274.252 560.399 275.629L565.995 272.371L571.315 281.596L565.719 284.809C566.331 286.462 566.79 288.191 567.095 289.996H573.563V300.599H567.095ZM556.73 295.321C556.73 284.35 547.877 275.492 536.961 275.492C526.045 275.492 517.192 284.35 517.192 295.321C517.192 306.245 526.045 315.103 536.961 315.103C547.877 315.103 556.73 306.245 556.73 295.321Z" fill="white" stroke="#263238" stroke-width="2" stroke-linecap="round" stroke-linejoin="round"/>
<path fill-rule="evenodd" clip-rule="evenodd" d="M515.175 150.093C514.869 151.898 514.425 153.627 513.844 155.28L519.394 158.493L514.12 167.719L508.524 164.46C507.362 165.837 506.093 167.107 504.717 168.269L507.973 173.869L498.754 179.148L495.544 173.594C493.892 174.175 492.165 174.634 490.361 174.971V181.443H479.765V174.971C477.992 174.634 476.264 174.175 474.583 173.594L471.372 179.194L462.153 173.869L465.409 168.269C464.033 167.107 462.78 165.852 461.648 164.506L456.052 167.719L450.732 158.539L456.328 155.28C455.716 153.627 455.257 151.914 454.952 150.139H448.484V139.49H454.952C455.257 137.715 455.701 136.002 456.282 134.349L450.732 131.09L456.007 121.91L461.602 125.123C462.764 123.746 464.033 122.492 465.409 121.36L462.153 115.76L471.372 110.435L474.583 116.035C476.234 115.423 477.961 114.964 479.765 114.658V108.186H490.361V114.658C492.134 114.964 493.862 115.423 495.544 116.035L498.754 110.435L507.973 115.76L504.717 121.36C506.093 122.492 507.347 123.746 508.478 125.123L514.12 121.864L519.394 131.09L513.799 134.303C514.41 135.986 514.869 137.715 515.175 139.49H521.642V150.093H515.175ZM504.855 144.814C504.855 133.844 496.002 124.986 485.04 124.986C474.124 124.986 465.272 133.844 465.272 144.814C465.272 155.739 474.124 164.597 485.04 164.597C496.002 164.597 504.855 155.739 504.855 144.814Z" fill="white" stroke="#263238" stroke-width="2" stroke-linecap="round" stroke-linejoin="round"/>
<path fill-rule="evenodd" clip-rule="evenodd" d="M137.187 358.387V284.81H41.4629V237.67L123.564 42.9624H193.603V238.864H223.966V284.81H193.603V358.387H137.187ZM88.9349 238.864H137.187V104.882L88.9349 238.864Z" fill="#263238"/>
<path fill-rule="evenodd" clip-rule="evenodd" d="M193.602 358.846H137.186C136.911 358.846 136.728 358.663 136.728 358.387V285.269H41.4626C41.1874 285.269 41.0039 285.039 41.0039 284.81V237.67C41.0039 237.609 41.0039 237.548 41.0039 237.487L123.151 42.7788C123.197 42.5952 123.38 42.5034 123.564 42.5034H193.602C193.878 42.5034 194.061 42.687 194.061 42.9624V238.405H223.966C224.195 238.405 224.425 238.588 224.425 238.864V284.81C224.425 285.039 224.195 285.269 223.966 285.269H194.061V358.387C194.061 358.663 193.878 358.846 193.602 358.846ZM137.645 357.928H193.144V284.81C193.144 284.534 193.373 284.351 193.602 284.351H223.507V239.323H193.602C193.373 239.323 193.144 239.093 193.144 238.864V43.4214H123.885L41.9212 237.762V284.351H137.186C137.416 284.351 137.645 284.534 137.645 284.81V357.928ZM137.186 239.277H88.9346C88.797 239.277 88.6135 239.185 88.5676 239.093C88.4759 238.955 88.43 238.818 88.4759 238.68L136.728 104.698C136.819 104.468 137.049 104.377 137.278 104.377C137.461 104.423 137.645 104.606 137.645 104.836V238.818C137.645 239.047 137.416 239.277 137.186 239.277ZM89.5767 238.359H136.728V107.452L89.5767 238.359Z" fill="#263238"/>
<path fill-rule="evenodd" clip-rule="evenodd" d="M336.798 363.849C317.87 363.849 302.184 359.963 289.739 352.191C277.294 344.388 267.952 333.678 261.714 320.061C255.476 306.413 252.357 290.639 252.357 272.738V131.366C252.357 112.914 255.339 96.7418 261.301 82.8494C267.295 68.9876 276.514 58.1552 288.959 50.3522C301.404 42.5492 317.35 38.6477 336.798 38.6477C356.001 38.6477 371.764 42.5492 384.086 50.3522C396.409 58.1552 405.567 68.9876 411.561 82.8494C417.523 96.7418 420.505 112.914 420.505 131.366V272.738C420.505 290.639 417.386 306.413 411.148 320.061C404.91 333.678 395.568 344.388 383.123 352.191C370.678 359.963 355.236 363.849 336.798 363.849ZM336.798 310.881C343.831 310.881 348.891 308.677 351.98 304.271C355.099 299.865 357.178 294.601 358.218 288.481C359.257 282.392 359.777 276.746 359.777 271.544V132.513C359.777 126.822 359.318 120.855 358.401 114.612C357.514 108.37 355.512 102.984 352.393 98.4554C349.274 93.896 344.075 91.6163 336.798 91.6163C329.551 91.6163 324.307 93.896 321.066 98.4554C317.824 102.984 315.745 108.37 314.828 114.612C313.91 120.855 313.452 126.822 313.452 132.513V271.544C313.452 276.746 313.972 282.392 315.011 288.481C316.051 294.601 318.268 299.865 321.662 304.271C325.025 308.677 330.071 310.881 336.798 310.881Z" fill="#263238"/>
<path fill-rule="evenodd" clip-rule="evenodd" d="M336.798 364.308C317.901 364.308 301.939 360.361 289.509 352.558C277.033 344.755 267.539 333.877 261.301 320.244C255.063 306.612 251.898 290.639 251.898 272.738V131.366C251.898 112.96 254.926 96.5735 260.888 82.6658C266.897 68.7581 276.254 57.7421 288.729 49.9391C301.159 42.182 317.35 38.1887 336.798 38.1887C356.016 38.1887 372.023 42.182 384.361 49.985C396.699 57.7421 405.965 68.7581 411.973 82.6658C417.936 96.5735 420.963 112.96 420.963 131.366V272.738C420.963 290.639 417.798 306.612 411.56 320.244C405.322 333.877 395.828 344.755 383.352 352.558C370.922 360.361 355.236 364.308 336.798 364.308ZM336.798 39.1067C317.534 39.1067 301.526 43.0541 289.188 50.7194C276.896 58.4306 267.631 69.3089 261.76 83.033C255.843 96.803 252.816 113.052 252.816 131.366V272.738C252.816 290.501 255.935 306.337 262.127 319.831C268.273 333.326 277.676 344.066 289.968 351.778C302.306 359.489 318.038 363.39 336.798 363.39C355.053 363.39 370.555 359.489 382.894 351.778C395.186 344.066 404.589 333.326 410.735 319.831C416.881 306.337 420.046 290.501 420.046 272.738V131.366C420.046 113.098 417.018 96.803 411.102 83.033C405.231 69.3089 396.057 58.4306 383.857 50.7194C371.656 43.0541 355.832 39.1067 336.798 39.1067ZM336.798 311.34C329.963 311.34 324.735 309.045 321.295 304.546C317.855 300.094 315.607 294.724 314.552 288.573C313.543 282.469 312.993 276.777 312.993 271.544V132.513C312.993 126.776 313.452 120.717 314.369 114.52C315.286 108.278 317.396 102.77 320.698 98.18C324.001 93.5441 329.413 91.1573 336.798 91.1573C344.228 91.1573 349.549 93.5441 352.759 98.18C355.878 102.77 357.942 108.278 358.86 114.52C359.777 120.763 360.236 126.822 360.236 132.513V271.544C360.236 276.731 359.731 282.469 358.676 288.573C357.621 294.724 355.511 300.094 352.392 304.546C349.182 309.045 343.953 311.34 336.798 311.34ZM336.798 92.0753C329.734 92.0753 324.551 94.3244 321.432 98.7308C318.222 103.183 316.158 108.553 315.286 114.658C314.369 120.809 313.91 126.822 313.91 132.513V271.544C313.91 276.731 314.461 282.377 315.47 288.436C316.479 294.403 318.68 299.635 321.983 303.996C325.285 308.264 330.239 310.422 336.798 310.422C343.632 310.422 348.631 308.264 351.613 303.996C354.686 299.681 356.75 294.448 357.759 288.436C358.814 282.331 359.318 276.685 359.318 271.544V132.513C359.318 126.868 358.86 120.855 357.942 114.658C357.071 108.553 355.053 103.183 352.025 98.6849C348.998 94.3244 343.907 92.0753 336.798 92.0753Z" fill="#263238"/>
<path fill-rule="evenodd" clip-rule="evenodd" d="M548.932 358.387V284.81H453.162V237.67L535.309 42.9624H605.348V238.864H635.711V284.81H605.348V358.387H548.932ZM500.68 238.864H548.932V104.882L500.68 238.864Z" fill="#263238"/>
<path fill-rule="evenodd" clip-rule="evenodd" d="M605.347 358.846H548.931C548.656 358.846 548.473 358.663 548.473 358.387V285.269H453.162C452.932 285.269 452.703 285.039 452.703 284.81V237.67C452.703 237.609 452.718 237.548 452.749 237.487L534.85 42.7788C534.942 42.5952 535.125 42.5034 535.309 42.5034H605.347C605.577 42.5034 605.806 42.687 605.806 42.9624V238.405H635.711C635.94 238.405 636.17 238.588 636.17 238.864V284.81C636.17 285.039 635.94 285.269 635.711 285.269H605.806V358.387C605.806 358.663 605.577 358.846 605.347 358.846ZM549.39 357.928H604.889V284.81C604.889 284.534 605.072 284.351 605.347 284.351H635.252V239.323H605.347C605.072 239.323 604.889 239.093 604.889 238.864V43.4214H535.584L453.62 237.762V284.351H548.931C549.161 284.351 549.39 284.534 549.39 284.81V357.928ZM548.931 239.277H500.634C500.496 239.277 500.359 239.185 500.267 239.093C500.175 238.955 500.175 238.818 500.221 238.68L548.473 104.698C548.564 104.468 548.748 104.377 548.977 104.377C549.207 104.423 549.39 104.606 549.39 104.836V238.818C549.39 239.047 549.161 239.277 548.931 239.277ZM501.322 238.359H548.473V107.452L501.322 238.359Z" fill="#263238"/>
<path d="M305 416V394H312.958V395.593H307.08V403.853H311.875V405.382H307.08V414.45H313V416H305Z" fill="#666666"/>
<path fill-rule="evenodd" clip-rule="evenodd" d="M316 416V394H320.615C321.904 394 322.91 394.219 323.633 394.658C324.369 395.097 324.895 395.741 325.211 396.591C325.54 397.426 325.704 398.424 325.704 399.585C325.704 400.406 325.619 401.178 325.448 401.9C325.277 402.622 324.988 403.237 324.58 403.747C324.185 404.257 323.613 404.589 322.864 404.745L326 416H324.126L321.128 405.191H317.933V416H316ZM317.913 403.662H320.517C321.371 403.662 322.036 403.506 322.509 403.195C322.969 402.898 323.304 402.445 323.515 401.836C323.712 401.241 323.811 400.491 323.811 399.585C323.811 398.226 323.594 397.214 323.16 396.548C322.726 395.883 321.858 395.55 320.556 395.55H317.913V403.662Z" fill="#666666"/>
<path fill-rule="evenodd" clip-rule="evenodd" d="M329 416V394H334.077C335.494 394 336.601 394.219 337.396 394.658C338.206 395.097 338.785 395.741 339.132 396.591C339.494 397.426 339.675 398.424 339.675 399.585C339.675 400.406 339.581 401.178 339.393 401.9C339.204 402.622 338.886 403.237 338.438 403.747C338.004 404.257 337.375 404.589 336.55 404.745L340 416H337.939L334.641 405.191H331.126V416H329ZM331.105 403.662H333.968C334.909 403.662 335.639 403.506 336.16 403.195C336.666 402.898 337.035 402.445 337.266 401.836C337.483 401.241 337.592 400.491 337.592 399.585C337.592 398.226 337.353 397.214 336.876 396.548C336.398 395.883 335.444 395.55 334.012 395.55H331.105V403.662Z" fill="#666666"/>
<path fill-rule="evenodd" clip-rule="evenodd" d="M348.5 416C347.08 416 345.971 415.716 345.171 415.149C344.372 414.596 343.806 413.821 343.476 412.825C343.159 411.828 343 410.68 343 409.379V400.455C343 399.154 343.165 398.019 343.496 397.051C343.841 396.082 344.42 395.335 345.233 394.809C346.033 394.27 347.122 394 348.5 394C349.892 394 350.988 394.27 351.788 394.809C352.587 395.335 353.152 396.082 353.483 397.051C353.828 398.019 354 399.154 354 400.455V409.4C354 410.701 353.835 411.842 353.504 412.825C353.173 413.821 352.615 414.596 351.829 415.149C351.029 415.716 349.92 416 348.5 416ZM348.5 414.381C349.451 414.381 350.175 414.187 350.671 413.8C351.154 413.426 351.491 412.894 351.684 412.202C351.863 411.524 351.953 410.735 351.953 409.836V400.081C351.953 399.182 351.863 398.4 351.684 397.736C351.491 397.058 351.154 396.539 350.671 396.179C350.175 395.806 349.451 395.619 348.5 395.619C347.563 395.619 346.839 395.806 346.329 396.179C345.833 396.539 345.488 397.058 345.295 397.736C345.116 398.4 345.026 399.182 345.026 400.081V409.836C345.026 410.735 345.116 411.524 345.295 412.202C345.488 412.894 345.833 413.426 346.329 413.8C346.839 414.187 347.563 414.381 348.5 414.381Z" fill="#666666"/>
<path fill-rule="evenodd" clip-rule="evenodd" d="M357 416V394H362.087C363.493 394 364.601 394.219 365.413 394.658C366.225 395.097 366.804 395.741 367.152 396.591C367.5 397.426 367.674 398.424 367.674 399.585C367.674 400.406 367.58 401.178 367.391 401.9C367.217 402.622 366.906 403.237 366.457 403.747C366.007 404.257 365.377 404.589 364.565 404.745L368 416H365.957L362.652 405.191H359.109V416H357ZM359.109 403.662H361.978C362.92 403.662 363.652 403.506 364.174 403.195C364.696 402.898 365.065 402.445 365.283 401.836C365.514 401.241 365.63 400.491 365.63 399.585C365.63 398.226 365.384 397.214 364.891 396.548C364.413 395.883 363.464 395.55 362.043 395.55H359.109V403.662Z" fill="#666666"/>
<path d="M313.223 214.904C308.515 242.689 301.42 258.754 291.941 263.099C282.462 267.413 272.096 263.129 260.844 250.247" stroke="#263238" stroke-width="2" stroke-linecap="round" stroke-linejoin="round"/>
<path d="M293.364 218.438C293.547 228.628 287.538 249.191 269.834 250.797C258 251.838 247.634 246.789 238.736 235.65" stroke="#263238" stroke-width="2" stroke-linecap="round" stroke-linejoin="round"/>
</svg>
