<svg width="32" height="32" viewBox="0 0 32 32" fill="none" xmlns="http://www.w3.org/2000/svg">
<circle cx="16" cy="16.0001" r="16" fill="#D9F5EE"/>
<g clip-path="url(#clip0_106_1061)">
<path d="M25.8456 9.89421C25.1133 10.2154 24.333 10.4284 23.5195 10.5318C24.3564 10.0321 24.9952 9.24683 25.2955 8.30037C24.5152 8.7656 23.6536 9.09421 22.7355 9.2776C21.9945 8.48868 20.9385 8.00006 19.7865 8.00006C17.5515 8.00006 15.7521 9.81421 15.7521 12.0382C15.7521 12.3582 15.7792 12.6659 15.8456 12.9588C12.4893 12.7951 9.51947 11.1865 7.5244 8.73606C7.17609 9.34037 6.97178 10.0321 6.97178 10.7767C6.97178 12.1748 7.69178 13.4142 8.76501 14.1318C8.1164 14.1194 7.48009 13.9311 6.94101 13.6345C6.94101 13.6468 6.94101 13.6628 6.94101 13.6788C6.94101 15.6407 8.3404 17.2702 10.1755 17.6456C9.84686 17.7354 9.4887 17.7785 9.11701 17.7785C8.85855 17.7785 8.59763 17.7638 8.3527 17.7096C8.87578 19.3084 10.3601 20.4838 12.125 20.5219C10.7515 21.5964 9.00747 22.2438 7.11947 22.2438C6.7884 22.2438 6.47086 22.229 6.15332 22.1884C7.94163 23.3416 10.061 24.0001 12.3466 24.0001C19.7755 24.0001 23.837 17.8462 23.837 12.5121C23.837 12.3336 23.8309 12.1613 23.8222 11.9902C24.6235 11.4216 25.2967 10.7114 25.8456 9.89421Z" fill="#252A34"/>
</g>
<defs>
<clipPath id="clip0_106_1061">
<rect width="19.6923" height="19.6923" fill="white" transform="translate(6.15332 6.15393)"/>
</clipPath>
</defs>
</svg>
