<svg width="32" height="32" viewBox="0 0 32 32" fill="none" xmlns="http://www.w3.org/2000/svg">
<circle cx="16" cy="16.0001" r="16" fill="#D9F5EE"/>
<g clip-path="url(#clip0_106_1082)">
<path d="M24.8409 11.3858C24.6282 10.5949 24.0046 9.97141 23.2138 9.75844C21.7691 9.36316 15.9903 9.36316 15.9903 9.36316C15.9903 9.36316 10.2117 9.36316 8.76705 9.74345C7.99147 9.95619 7.35269 10.595 7.13995 11.3858C6.75977 12.8303 6.75977 15.8262 6.75977 15.8262C6.75977 15.8262 6.75977 18.8371 7.13995 20.2665C7.35291 21.0573 7.97626 21.6808 8.76716 21.8937C10.2269 22.2891 15.9905 22.2891 15.9905 22.2891C15.9905 22.2891 21.7691 22.2891 23.2138 21.9088C24.0047 21.696 24.6282 21.0725 24.8411 20.2817C25.2212 18.8371 25.2212 15.8414 25.2212 15.8414C25.2212 15.8414 25.2364 12.8303 24.8409 11.3858ZM14.1505 18.5938V13.0585L18.9558 15.8262L14.1505 18.5938Z" fill="#252A34"/>
</g>
<defs>
<clipPath id="clip0_106_1082">
<rect width="19.6923" height="19.6923" fill="white" transform="translate(6.15332 6.15393)"/>
</clipPath>
</defs>
</svg>
